<svg xmlns="http://www.w3.org/2000/svg" xmlns:xlink="http://www.w3.org/1999/xlink" version="1.1" x="0px" y="0px" viewBox="0 0 96 120" enable-background="new 0 0 96 96" xml:space="preserve"><path d="M70.504,35.94C70.504,18.329,56.176,4,38.563,4C20.952,4,6.624,18.329,6.624,35.94s14.328,31.94,31.939,31.94  c6.93,0,13.346-2.226,18.586-5.989l29.668,29.669l2.121-2.121L59.517,60.017C66.242,54.157,70.504,45.54,70.504,35.94z M9.624,35.94  C9.624,19.982,22.606,7,38.563,7c15.958,0,28.941,12.982,28.941,28.94s-12.983,28.94-28.941,28.94  C22.606,64.881,9.624,51.898,9.624,35.94z"/><path d="M43.46,32.464c0.707,1.302,1.594,1.962,2.636,1.962c0.667,0,1.627-0.285,2.416-1.641c0.503-0.861,0.542-1.79,0.107-2.549  c-0.51-0.888-1.569-1.397-2.907-1.397l-0.189,0.003c-1.111,0.04-1.681,0.634-1.921,0.985c-0.679,0.989-0.32,2.181-0.241,2.41  L43.46,32.464z"/><path d="M56.616,40.167c-0.23,0.194-0.705,0.391-1.13,0.504c0.022-0.571-0.083-1.117-0.189-1.586  c-0.064-0.286-0.161-0.717-0.134-0.857c0.033-0.134,0.274-0.476,0.434-0.702c0.445-0.631,1-1.417,1-2.449  c0-0.797-0.331-1.445-0.687-1.99c0.187,0.05,0.347,0.098,0.494,0.142c0.393,0.117,0.764,0.229,1.273,0.291  c0.117,0.015,0.231,0.021,0.342,0.021c0.557,0,1.043-0.164,1.446-0.3c0.153-0.051,0.383-0.129,0.465-0.136  c0,0-0.043,0.004-0.112-0.013l0.686-2.921c-0.782-0.184-1.484,0.054-1.997,0.227c-0.163,0.055-0.408,0.138-0.462,0.145  c-0.262-0.032-0.458-0.091-0.782-0.188c-0.352-0.105-0.79-0.236-1.447-0.37c-0.115-0.023-0.219-0.037-0.327-0.054  c0.036-0.468,0.005-0.961-0.202-1.459c-0.392-0.945-1.202-1.456-1.852-1.866c-0.239-0.151-0.601-0.379-0.682-0.493  c-0.078-0.12-0.152-0.547-0.201-0.83c-0.077-0.444-0.181-0.95-0.387-1.438c0.028-0.052,0.057-0.111,0.084-0.155  c1.212,0.31,2.205-0.179,2.77-0.457c0.104-0.051,0.198-0.103,0.283-0.132l-0.881-2.868c-0.22,0.068-0.464,0.179-0.726,0.308  c-0.485,0.238-0.629,0.279-0.769,0.22c-0.581-0.253-1.222-0.25-1.803,0.007c-0.573,0.253-1.012,0.732-1.342,1.224  c-0.225-0.051-0.445-0.092-0.65-0.128c-0.283-0.049-0.711-0.124-0.828-0.199c-0.115-0.082-0.343-0.443-0.494-0.682  c-0.216-0.344-0.467-0.729-0.789-1.076c0.635-0.489,1.086-1.205,1.323-1.851l-2.812-1.045c-0.067,0.173-0.205,0.396-0.301,0.494  c-0.685,0.069-1.242,0.431-1.542,1.007c-0.098,0.189-0.149,0.383-0.182,0.577c-0.052,0.011-0.111,0.02-0.162,0.031  c-0.299,0.068-0.599,0.142-0.86,0.133c-0.068-0.017-0.19-0.087-0.324-0.174c0.329-0.208,0.543-0.471,0.677-0.712  c0.653-1.171-0.121-2.423-0.493-3.024l-0.078-0.128l-2.169,1.29c-1,0.162-1.446,0.753-1.632,1.127  c-0.064,0.128-0.104,0.257-0.137,0.386c-0.557,0.2-1.035,0.517-1.44,0.803c-0.226,0.159-0.567,0.4-0.76,0.436  c-0.194,0-0.503-0.069-0.802-0.137c-0.038-0.009-0.083-0.015-0.123-0.023c-0.355-0.877-0.856-1.707-1.553-2.125l0.26-2.472  c-1.15-0.125-2.202,0.381-2.799,1.345c-0.588,0.951-0.641,2.178-0.127,2.986c0.24,0.378,0.596,0.639,0.997,0.77  c-0.492,0.411-0.834,0.931-1.118,1.381c-0.151,0.239-0.379,0.601-0.493,0.682c-0.12,0.077-0.547,0.151-0.829,0.2  c-0.383,0.066-0.813,0.143-1.237,0.293c-0.046-0.119-0.094-0.237-0.169-0.346c-0.521-0.757-1.283-1.245-5.859-0.1l0.728,2.91  c0.819-0.205,1.696-0.382,2.369-0.489c0.174,0.42,0.465,0.748,0.776,1.003c-0.008,0.048-0.02,0.101-0.028,0.147  c-0.049,0.283-0.123,0.709-0.201,0.83c-0.081,0.115-0.442,0.343-0.682,0.494c-0.584,0.369-1.282,0.836-1.705,1.61  c-0.832,0.162-1.934,0.581-3.392,1.443c-0.922,0.544-1.387,0.75-1.613,0.828c-0.065-0.076-0.141-0.168-0.204-0.245l-0.212-0.257  l-2.296,1.931l0.188,0.227c0.792,0.967,1.521,1.388,2.365,1.388c0.9,0,1.929-0.48,3.298-1.289c0.778-0.459,1.353-0.723,1.773-0.881  c0.048,0.232,0.09,0.47,0.071,0.567c-0.032,0.134-0.273,0.475-0.433,0.701c-0.446,0.631-1,1.417-1,2.449  c0,0.015,0.005,0.027,0.005,0.042c-0.466,0.194-0.915,0.496-1.229,0.994c-0.09,0.143-0.159,0.275-0.216,0.402  c-0.179,0.022-0.466,0.047-0.917,0.065l0.116,2.998c1.726-0.067,2.901-0.221,3.479-1.693c0.001-0.002,0.002-0.005,0.003-0.008  c0.094,0.143,0.174,0.277,0.191,0.349c0.028,0.142-0.069,0.574-0.133,0.86c-0.167,0.743-0.375,1.668,0.011,2.599  c0.052,0.125,0.127,0.226,0.193,0.336c-0.135,0.301-0.248,0.63-0.311,1.024c-0.072,0.441-0.225,0.846-1.295,0.953l0.299,2.985  c1.877-0.188,3.197-1.142,3.742-2.651c0.041,0.172,0.078,0.377,0.105,0.54c0.093,0.541,0.211,1.175,0.531,1.755  c-0.544,0.752-0.821,1.663-0.43,2.621l0.052,0.126c0.038,0.093,0.081,0.196,0.117,0.288c-0.019,0.018-0.04,0.037-0.063,0.058  c-0.249,0.223-0.437,0.421-0.6,0.594c-0.08,0.085-0.142,0.162-0.148,0.185c-0.004,0.001-0.111,0.029-0.448,0.018l-0.108,2.998  c0.084,0.003,0.165,0.004,0.244,0.004c1.444,0,2.035-0.5,2.646-1.149c0.113-0.12,0.242-0.259,0.415-0.414  c1.58-1.413,1.171-2.62,0.77-3.601c0.03-0.037,0.08-0.081,0.121-0.122c0.108,0.021,0.22,0.043,0.322,0.061  c0.283,0.049,0.71,0.123,0.828,0.199c0.115,0.082,0.343,0.443,0.494,0.683c0.373,0.592,0.846,1.301,1.638,1.721  c0.067,0.397,0.197,0.835,0.454,1.283c-0.031,0.018-0.065,0.038-0.103,0.058c-1.831,0.991-2.509,3.107-1.894,4.336l2.683-1.344  c0.085,0.171,0.095,0.308,0.091,0.346c0.011-0.114,0.16-0.49,0.548-0.701c0.614-0.332,1.462-0.891,1.734-1.897  c0.232-0.86-0.081-1.61-0.305-2.024c0.168-0.034,0.332-0.059,0.474-0.05c0.134,0.033,0.476,0.274,0.702,0.434  c0.631,0.445,1.417,1,2.449,1c1.033,0,1.818-0.555,2.45-1c0.226-0.16,0.567-0.4,0.756-0.436c0.193,0,0.502,0.069,0.801,0.136  c0.091,0.021,0.194,0.036,0.291,0.055c0.227,1.134,0.9,2.204,2.191,2.659c0.387,0.137,0.503,0.223,0.511,0.229  c0.035,0.076,0.047,0.157,0.068,0.239c0.054,0.208,0.112,0.421,0.199,0.641l2.789-1.104c-0.039-0.097-0.06-0.193-0.083-0.285  c-0.229-0.889-0.629-1.892-2.485-2.548c-0.114-0.041-0.18-0.153-0.22-0.285c0.544-0.421,0.903-0.984,1.205-1.463  c0.151-0.239,0.378-0.601,0.49-0.68c0.12-0.078,0.547-0.151,0.83-0.201c0.245-0.042,0.512-0.097,0.782-0.164  c0.039,0.137,0.077,0.427-0.002,0.923c-0.086,0.54,0.059,1.082,0.409,1.526c0.914,1.162,3.497,1.595,5.503,1.753l0.236-2.99  c-1.157-0.092-2.447-0.328-3.109-0.553c0.053-1.145-0.247-1.996-0.727-2.603c0.17-0.449,0.258-0.907,0.329-1.313  c0.049-0.283,0.124-0.711,0.202-0.831c0.081-0.115,0.442-0.342,0.681-0.493c0.038-0.023,0.079-0.052,0.117-0.076  c0.107,0.049,0.207,0.108,0.323,0.145c0.323,0.101,0.67,0.146,1.027,0.146c1.22,0,2.547-0.521,3.358-1.082  c0.09,0.066,0.189,0.154,0.259,0.232l2.262-1.97C59.751,39.75,58.009,38.998,56.616,40.167z M51.835,41.011  c-0.238,0.15-0.488,0.313-0.732,0.498c-0.496-0.378-1.148-0.695-1.853-1.031c-0.425-0.202-0.864-0.412-1.112-0.568  c-0.062-0.039-0.141-0.116-0.229-0.211c0.491,0.369,1.067,0.581,1.676,0.581c0.637,0,1.232-0.233,1.675-0.658  c0.471-0.451,0.73-1.077,0.73-1.765c0-0.971-0.44-1.612-0.704-1.995c-0.027-0.039-0.055-0.076-0.081-0.114  c0.005-0.011,0.011-0.022,0.017-0.035l1.242-2.484c0.192,0.421,0.443,0.792,0.68,1.128c0.159,0.226,0.425,0.603,0.453,0.693  c-0.028,0.143-0.294,0.52-0.453,0.745c-0.364,0.516-0.776,1.101-0.924,1.847c-0.152,0.765,0.015,1.505,0.149,2.101  c0.062,0.275,0.156,0.691,0.159,0.762C52.448,40.624,52.079,40.857,51.835,41.011z M30.057,45.336  c-0.282-0.049-0.709-0.123-0.778-0.149c-0.077-0.12-0.15-0.545-0.199-0.827c-0.109-0.63-0.232-1.344-0.664-1.989  c-0.427-0.637-1.036-1.021-1.574-1.359c-0.245-0.154-0.614-0.387-0.668-0.438c-0.023-0.139,0.07-0.555,0.132-0.831  c0.134-0.595,0.301-1.336,0.15-2.1c-0.148-0.747-0.561-1.332-0.925-1.848c-0.159-0.225-0.425-0.602-0.453-0.691  c0.028-0.143,0.294-0.519,0.453-0.744c0.076-0.108,0.155-0.221,0.232-0.335c0.454,0.311,0.993,0.461,1.492,0.601  c0.232,0.064,0.489,0.135,0.763,0.229c0.254,0.087,0.525,0.198,0.798,0.308c0.629,0.255,1.275,0.512,1.91,0.619  c-0.32,0.227-0.639,0.48-0.958,0.747c-0.009-0.002-0.017-0.005-0.026-0.007c-0.242-0.067-0.544-0.15-0.899-0.15  c-0.375,0-1.627,0.124-2.027,1.72c-0.215,0.859-0.076,1.663,0.392,2.261c0.435,0.558,1.118,0.877,1.874,0.877  c0.689,0,1.411-0.265,2.03-0.744c0.422-0.326,1.086-0.791,1.709-1.218c0.028,0.359,0.118,0.714,0.303,1.035  c0.429,0.743,1.209,1.187,2.085,1.187c0.183,0,0.371-0.02,0.63-0.068c0.057,0.079,0.127,0.195,0.179,0.281  c0.158,0.259,0.336,0.553,0.617,0.812c0.514,0.473,1.087,0.912,1.8,0.912c0.042,0,0.081-0.009,0.122-0.012  c-0.001,0.005-0.002,0.016-0.004,0.021c-0.515,0.901-0.825,1.446-1.986,1.792c-1.376,0.409-1.736,1.436-1.626,2.19  c0.031,0.215,0.107,0.413,0.205,0.599c-0.16,0.031-0.323,0.063-0.471,0.096c-0.294,0.066-0.599,0.135-0.764,0.159  c-0.118-0.081-0.35-0.449-0.504-0.693c-0.339-0.539-0.724-1.149-1.363-1.577C31.399,45.569,30.686,45.445,30.057,45.336z   M49.446,45.137c-0.12,0.077-0.545,0.15-0.828,0.199c-0.629,0.109-1.341,0.233-1.985,0.663c-0.638,0.428-1.022,1.037-1.361,1.575  c-0.154,0.244-0.386,0.613-0.485,0.67c-0.186,0-0.49-0.068-0.784-0.135c-0.619-0.139-1.391-0.291-2.101-0.149  c-0.746,0.148-1.33,0.561-1.845,0.924c-0.213,0.15-0.561,0.396-0.719,0.446c-0.104-0.033-0.289-0.151-0.465-0.271  c0.63-0.218,1.35-0.631,2.027-1.424c2.089-2.445,1.861-4.065,1.597-5.942c-0.04-0.286-0.083-0.592-0.122-0.925  c-0.332-2.885-1.439-3.49-2.31-3.49c-0.466,0-0.915,0.203-1.23,0.557c-0.154,0.173-0.26,0.388-0.344,0.626  c-0.837-1.037-1.914-1.885-3-1.885c-0.154,0-0.295,0.03-0.441,0.05l-0.079-0.208c-0.325-0.856-1.013-1.374-1.852-1.458  c0.284-0.381,0.462-0.869,0.494-1.446l0.063-1.143l-1.086-0.362c-0.675-0.225-1.479-0.6-1.765-0.817  c-0.52-1.111-2.063-1.788-3.303-1.788c-0.508,0-0.968,0.119-1.363,0.329c-0.007-0.038-0.014-0.074-0.014-0.088  c0.081-0.118,0.45-0.351,0.694-0.505c0.539-0.339,1.149-0.724,1.575-1.362c0.431-0.643,0.555-1.357,0.665-1.987  c0.049-0.282,0.123-0.708,0.149-0.777c0.12-0.077,0.546-0.15,0.828-0.199c0.489-0.084,1.028-0.183,1.545-0.422  c-0.011,1.027,0.395,2.018,0.679,2.691c0.077,0.182,0.147,0.342,0.188,0.471l1.508,4.736l0.573,0.282  c0.517,0.254,0.981,0.377,1.42,0.377c0.214,0,0.416-0.04,0.609-0.097c0.002,0.339,0.05,0.683,0.171,1.027  c0.491,1.398,1.629,2.301,2.901,2.301c0.637,0,1.232-0.234,1.676-0.658c0.471-0.451,0.73-1.077,0.73-1.765  c0-0.972-0.441-1.612-0.704-1.995c-0.026-0.039-0.055-0.076-0.08-0.114c0.005-0.01,0.01-0.022,0.017-0.034l1.138-2.277  c0.538-0.328,1.056-0.78,1.575-1.265c0.009,0.002,0.018,0.004,0.027,0.006c0.213,0.046,0.478,0.104,0.781,0.104  c0.823,0,1.795-0.481,2.055-1.832c0.163-0.844-0.006-1.622-0.475-2.19c-0.875-1.061-2.682-1.057-3.945,0.034  c-0.932,0.805-3.134,2.438-3.156,2.455l-0.965,0.715l0.487,1.098c0.191,0.43,0.475,0.773,0.821,1.01l-0.108,0.032  c-0.184,0.054-0.806,0.264-1.434,0.695c-0.041-0.928-0.307-2.002-0.603-3.169c-0.165-0.646-0.413-1.624-0.405-1.909  c0.016-0.279,0.13-0.614,0.241-0.937c0.205-0.6,0.471-1.406,0.023-2.173c0.484-0.195,0.897-0.484,1.273-0.749  c0.225-0.159,0.601-0.424,0.691-0.452c0.143,0.028,0.519,0.293,0.744,0.452c0.516,0.364,1.1,0.777,1.846,0.924  c0.706,0.14,1.483-0.009,2.103-0.148c0.294-0.066,0.599-0.135,0.763-0.16c0.118,0.081,0.351,0.45,0.505,0.695  c0.339,0.538,0.723,1.147,1.362,1.576c0.643,0.429,1.355,0.553,1.984,0.662c0.282,0.049,0.708,0.123,0.778,0.15  c0.077,0.12,0.151,0.546,0.2,0.828c0.109,0.629,0.233,1.343,0.664,1.986c0.427,0.638,1.037,1.022,1.574,1.361  c0.245,0.154,0.614,0.387,0.668,0.437c0.023,0.139-0.07,0.555-0.132,0.83c-0.134,0.596-0.301,1.337-0.149,2.103  c0.018,0.09,0.05,0.171,0.075,0.257l-2.838,0.834c-0.316,0.093-1.931,0.626-2.639,2.009c-0.375,0.732-0.422,1.551-0.135,2.366  c0.029,0.083,0.067,0.157,0.101,0.236c-0.6-0.833-1.096-1.41-1.956-1.41l-0.701,0.028l-0.442,0.457  c-0.525,0.543-0.5,1.269-0.491,1.542c0.035,1.032,0.691,1.938,1.326,2.813c0.175,0.242,0.349,0.479,0.491,0.704  c0.403,0.64,1.904,2.726,4.274,2.726c0.06,0,0.12-0.011,0.179-0.013C49.458,45.092,49.45,45.125,49.446,45.137z"/><text x="0" y="111" fill="#000000" font-size="5px" font-weight="bold" font-family="'Helvetica Neue', Helvetica, Arial-Unicode, Arial, Sans-serif">Created by faisalovers</text><text x="0" y="116" fill="#000000" font-size="5px" font-weight="bold" font-family="'Helvetica Neue', Helvetica, Arial-Unicode, Arial, Sans-serif">from the Noun Project</text></svg>