<svg xmlns="http://www.w3.org/2000/svg" xmlns:xlink="http://www.w3.org/1999/xlink" version="1.1" x="0px" y="0px" viewBox="0 0 100 125" style="enable-background:new 0 0 100 100;" xml:space="preserve"><g><g><g><path d="M40.3,70.3c-1.9,0-3.7-0.5-5.5-1.5c-4-2.1-6.6-6.1-7.1-10.6c-0.3-3.1,0.1-6.4,1.2-9.8     c0-0.2,1.7-6.5,7.7-12.9c0.1-0.1,0.2-0.2,0.3-0.3c2.9-2.9,5.9-4.1,8.7-3.6c2.7,0.5,5,2.5,6.8,6.1c1.5-1.3,3.5-2.1,5.5-2.1l1,0     c0.1,0,0.1,0,0.2,0c1.4,0.2,2.3,1.4,2.2,2.8c-0.1,1.4-1.2,2.4-2.6,2.5c-1.3,0-1.5,0.3-2.8,1.9L55.7,43c-0.8,1-1.9,1.6-3.2,1.6     c-1.3,0-2.5-0.4-3.3-1.4l-1.6-1.6l1.2,6.5c0.2,1-0.1,2-0.8,2.7c-0.7,0.7-1.7,1.1-2.7,0.9c-0.9-0.1-1.7-0.1-2.5,0.2l-2.5,0.7     c-1.6,0.4-3.2,0-4.3-1.1c-0.9-1-1.2-2.2-0.8-3.5c0.5-1.7,2.4-2.8,4.2-2.6l1.4,0.2c0.6,0.1,1,0.6,1,1.2c-0.1,0.6-0.6,1-1.2,1     l-1.4-0.2c-0.7-0.1-1.6,0.4-1.9,1.1c-0.2,0.5-0.1,0.9,0.3,1.3c0.5,0.5,1.3,0.7,2.1,0.5l2.5-0.7c1.1-0.3,2.2-0.4,3.4-0.2     c0.3,0,0.6,0,0.8-0.3c0.2-0.2,0.3-0.5,0.2-0.8l-1.2-6.8c-0.2-0.9,0.3-1.8,1.1-2.2c0.8-0.4,1.8-0.3,2.5,0.4l1.9,1.8     c0.5,0.5,1,0.7,1.7,0.7c0.6,0,1.2-0.3,1.6-0.8l0.2-0.3c1.4-1.8,2.1-2.7,4.5-2.8c0.3,0,0.4-0.1,0.4-0.4c0-0.2-0.1-0.4-0.3-0.4     l-0.8,0c-1.6,0-3.2,0.7-4.3,1.8c-0.4,0.4-1.1,0.6-1.7,0.5c-0.6-0.1-1.1-0.5-1.4-1.1c-1.5-3.1-3.3-4.9-5.3-5.2     c-2.6-0.5-5.1,1.4-6.8,3c-0.1,0.1-0.2,0.2-0.3,0.3c-5.6,6-7.1,12-7.2,12.1c-1.1,3.2-1.4,6.2-1.2,9c0.4,3.8,2.6,7.1,5.9,8.9     c2,1.1,4.1,1.4,6.1,1c2.5-0.5,4.7-2.4,5.5-4.9c0.6-1.9,0.2-3.7-1.2-5.2c-0.3-0.3-0.6-0.6-1.1-0.9c-0.5-0.4-0.6-1.1-0.2-1.5     c0.4-0.5,1.1-0.6,1.5-0.2c0.6,0.4,1,0.8,1.4,1.2c1.4,1.5,2.8,4,1.7,7.4c-1,3.2-3.8,5.8-7.2,6.4C41.7,70.2,41,70.3,40.3,70.3z"/></g><g><path d="M37.9,58.9c-0.1,0-0.2,0-0.2,0c-0.2,0-1-0.3-1.6-1.2c-0.4-0.8-0.5-1.7-0.1-2.8c0.2-0.6,0.8-0.9,1.4-0.7     c0.6,0.2,0.9,0.8,0.7,1.4c-0.1,0.4-0.2,0.8-0.1,1c0,0.1,0.1,0.1,0.1,0.1c0.6,0.1,1,0.7,0.8,1.3C38.9,58.6,38.5,58.9,37.9,58.9z"/></g><g><path d="M75.5,59.7c-0.5,0-0.9-0.3-1.1-0.8l-4.6-15c-1.4-4.5-1.5-9.1-0.5-13.4c0.5-1.9,1.2-3.7,2.1-5.4     c2-3.6,3.4-6.7,4.1-10.3c0.1-0.6,0.7-1,1.3-0.9c0.6,0.1,1,0.7,0.9,1.3c-0.7,3.9-2.2,7.2-4.3,11c-0.8,1.5-1.4,3.1-1.9,4.8     c-1,3.9-0.8,8.1,0.5,12.2l4.6,15c0.2,0.6-0.1,1.2-0.7,1.4C75.7,59.7,75.6,59.7,75.5,59.7z"/></g><g><path d="M43.6,93c-0.5,0-0.9-0.3-1.1-0.8c-1.2-4.7-2.1-11.9-0.1-19.1c0.2-0.6,0.8-0.9,1.4-0.8     c0.6,0.2,0.9,0.8,0.8,1.4c-1.9,6.8-0.9,13.5,0.2,18c0.1,0.6-0.2,1.2-0.8,1.3C43.8,93,43.7,93,43.6,93z"/></g><g><path d="M42.4,78.5c-0.1,0-0.2,0-0.3,0l-0.1,0c-8.3-2.1-14.6-6.3-17.9-11.8c-3-5-3.5-11.1-1.7-18     c1.5-5.8,5.1-11,8.2-15.7c3.2-4.7,5.9-8.8,5.8-12.1c0-0.6,0.4-1.1,1.1-1.2c0.6,0,1.1,0.4,1.2,1.1c0.2,4.1-2.8,8.4-6.2,13.5     c-3,4.5-6.5,9.6-7.9,15C22.8,55.6,23.3,61,26,65.5c3,5.1,8.9,8.9,16.6,10.8l0.1,0c0.6,0.1,1,0.7,0.8,1.3     C43.3,78.2,42.9,78.5,42.4,78.5z"/></g><g><path d="M40.9,22.1c-3.1,0-5.8-0.9-7.9-2.8c-2.7-2.3-3.9-5.9-3.4-9.6c0.1-0.6,0.6-1,1.3-0.9     c0.6,0.1,1,0.6,0.9,1.3c-0.4,2.9,0.6,5.8,2.7,7.6c2.5,2.2,6.3,2.8,10.7,1.6c0.6-0.2,1.2,0.2,1.4,0.8c0.2,0.6-0.2,1.2-0.8,1.4     C44.1,21.9,42.4,22.1,40.9,22.1z"/></g><g><path d="M32.4,89.8c-0.5,0-1-0.4-1.1-0.9c-1.7-8.8,0-15.6,0-15.9c0.1-0.6,0.8-0.9,1.3-0.8c0.6,0.1,1,0.8,0.8,1.3     c0,0.1-1.6,6.6,0,14.9c0.1,0.6-0.3,1.2-0.9,1.3C32.5,89.8,32.4,89.8,32.4,89.8z"/></g></g><g><path d="M92.5,100L73.8,77.5c-2.4-2.8-2.9-6.6-1.3-10c0.9-2,2.5-3.6,4.4-4.5c0.1,0,0.1-0.1,0.2-0.1    c1.2-0.5,2.5-0.8,3.9-0.8c0,0,0,0,0,0c3.7,0,6.9,2,8.5,5.4c1.6,3.3,1.1,7.1-1.2,10l-1.4,1.7L99.3,94L92.5,100z M75.9,66.4    c-0.6,0.6-1.1,1.3-1.5,2.1c-1.2,2.5-0.8,5.5,1,7.6l17.3,20.7l3.5-3.1L84.6,80c0,0,0,0,0-0.1l-6.4-7.5    C76.7,70.6,75.9,68.5,75.9,66.4z M78.3,64.8c-0.5,2.2,0,4.4,1.5,6.1l5.5,6.5l1.1-1.4c1.8-2.2,2.1-5.1,0.9-7.6    c-1.2-2.5-3.7-4.1-6.5-4.1c0,0,0,0,0,0C80,64.3,79.1,64.5,78.3,64.8z"/></g><g><path d="M49.6,97.9c-0.1,0-0.2,0-0.3,0l-0.5,0c-26.4-0.5-48-22.4-48-48.9c0-13.1,5.1-25.4,14.3-34.7    C24.3,5.1,36.6,0,49.6,0c0,0,0.1,0,0.1,0C76.1,0,98,21.6,98.5,47.9c0.1,6.9-1.2,13.7-3.8,20c-0.2,0.6-0.9,0.8-1.5,0.6    c-0.6-0.2-0.8-0.9-0.6-1.4c2.6-6.1,3.8-12.5,3.7-19.1C95.8,22.8,74.9,2.3,49.7,2.2c0,0-0.1,0-0.1,0c-12.5,0-24.2,4.9-33,13.7    C7.8,24.7,2.9,36.5,2.9,49c0,25.3,20.6,46.2,45.8,46.7l0.5,0c10.1,0.1,20.1-3.6,28.2-10.4c0.7-0.6,1.4-1.2,2-1.8    c0.4-0.4,1.1-0.4,1.6,0.1c0.4,0.4,0.4,1.1-0.1,1.6c-0.7,0.6-1.4,1.3-2.1,1.9C70.5,94,60.1,97.9,49.6,97.9z"/></g></g><text x="0" y="115" fill="#000000" font-size="5px" font-weight="bold" font-family="'Helvetica Neue', Helvetica, Arial-Unicode, Arial, Sans-serif">Created by Andrei Yushchenko</text><text x="0" y="120" fill="#000000" font-size="5px" font-weight="bold" font-family="'Helvetica Neue', Helvetica, Arial-Unicode, Arial, Sans-serif">from the Noun Project</text></svg>