<svg xmlns="http://www.w3.org/2000/svg" viewBox="0 0 512 640" x="0px" y="0px"><title>Medical &amp;amp; Healthcare Vol.1</title><g><path fill="#00928F" d="M130.51,501a2.88,2.88,0,0,1-.41,0,5,5,0,0,1-4.58-5.38c.52-6.34,5-14.55,11.93-22,7.28-7.76,15.85-13.1,23.51-14.63l2-.39c11.89-2.33,20.48-4,27.51-25.69,9.23-28.48,33.76-31.82,34.8-31.95a5,5,0,0,1,1.24,9.92c-.86.12-19.33,2.92-26.53,25.11-8.84,27.29-22.19,29.9-35.11,32.42l-1.91.38c-12.7,2.55-26.78,19.55-27.44,27.61A5,5,0,0,1,130.51,501Z"/><path fill="#00928F" d="M163.28,359.16h-.41a5,5,0,0,1-4.58-5.39c.51-6.34,5-14.55,11.93-22,7.28-7.76,15.84-13.1,23.51-14.63l2-.39c11.89-2.33,20.48-4,27.51-25.69,9.23-28.48,33.76-31.82,34.8-31.95a5,5,0,0,1,1.25,9.92c-.87.12-19.34,2.92-26.54,25.11-8.84,27.29-22.19,29.9-35.1,32.42l-1.92.38c-12.7,2.55-26.78,19.55-27.44,27.61A5,5,0,0,1,163.28,359.16Z"/><path fill="#00928F" d="M15.84,391.39l-.41,0A5,5,0,0,1,10.85,386c.51-6.33,5-14.55,11.93-22,7.28-7.77,15.85-13.1,23.51-14.64l2-.38c11.89-2.33,20.48-4,27.51-25.69,9.23-28.48,33.76-31.83,34.8-31.95a5,5,0,0,1,1.25,9.92c-.83.11-19.33,2.89-26.53,25.11-8.85,27.29-22.2,29.9-35.11,32.42l-1.91.38c-12.71,2.55-26.79,19.55-27.44,27.6A5,5,0,0,1,15.84,391.39Z"/><path fill="#00928F" d="M138.94,313.52a42.07,42.07,0,0,1-21.2-5.94c-14-8.14-26.61-25.36-23.3-45.45,3-18.49,21.11-32.15,31.61-38.65,40.38-25,59.66-10.79,62.11-8.73a33.47,33.47,0,0,1,8.52,9.2c2.28,3.29,13.92,23.48-13.3,61.13-5.76,8-15.86,18.53-26.9,24.19A38.29,38.29,0,0,1,138.94,313.52Zm29.42-94.63c-8.15,0-20.3,2.74-37.05,13.1-9,5.6-24.6,17.18-27,31.76-2.53,15.4,7.45,28.77,18.47,35.19h0c5.58,3.25,16.79,7.76,29.15,1.43,7.8-4,17-12.3,23.36-21.14,24.42-33.78,13.39-49.32,13.27-49.47a5,5,0,0,1-.56-.87h0a24,24,0,0,0-6.05-6.3,3.24,3.24,0,0,1-.34-.29S177.42,218.89,168.36,218.89Z"/><path fill="#00928F" d="M287.94,281.52a42.07,42.07,0,0,1-21.2-5.94c-14-8.14-26.62-25.36-23.3-45.45,3-18.49,21.11-32.15,31.61-38.65,40.38-25,59.66-10.79,62.11-8.73a33.62,33.62,0,0,1,8.52,9.2c2.28,3.29,13.92,23.48-13.3,61.13-5.76,8-15.86,18.53-26.9,24.19A38.29,38.29,0,0,1,287.94,281.52Zm29.42-94.63c-8.15,0-20.3,2.74-37.05,13.1-9.05,5.6-24.6,17.18-27,31.76-2.53,15.4,7.45,28.77,18.47,35.19h0c5.58,3.25,16.79,7.76,29.15,1.43,7.79-4,17-12.3,23.36-21.14,24.35-33.69,13.32-49.39,13.21-49.55a2.94,2.94,0,0,1-.5-.79h0a24.13,24.13,0,0,0-6.05-6.31,2.3,2.3,0,0,1-.34-.28S326.42,186.89,317.36,186.89Z"/><path fill="#00928F" d="M253.94,420.52a42.07,42.07,0,0,1-21.2-5.94c-14-8.14-26.61-25.36-23.3-45.45,3-18.49,21.11-32.15,31.61-38.65,40.38-25,59.66-10.79,62.11-8.73a33.62,33.62,0,0,1,8.52,9.2c2.28,3.29,13.92,23.48-13.3,61.13-5.76,8-15.86,18.53-26.9,24.19A38.29,38.29,0,0,1,253.94,420.52Zm29.42-94.63c-8.15,0-20.3,2.74-37.05,13.1-9.05,5.6-24.6,17.18-27,31.76-2.53,15.4,7.45,28.77,18.47,35.19h0c5.58,3.25,16.79,7.76,29.15,1.43,7.79-4,17-12.3,23.36-21.14,24.35-33.69,13.32-49.39,13.21-49.55a2.94,2.94,0,0,1-.5-.79h0a24.13,24.13,0,0,0-6.05-6.31,2.3,2.3,0,0,1-.34-.28S292.42,325.89,283.36,325.89Z"/><path fill="#00928F" d="M247.76,333.93a4.94,4.94,0,0,1-2.4-.62c-29-15.87-49.18-34.47-61.72-56.87a5,5,0,0,1,8.72-4.88c11.6,20.7,30.5,38,57.8,53a5,5,0,0,1-2.4,9.39Z"/><path fill="#00928F" d="M324.5,353.5c-3.34,0-6.71-.1-10-.3a5,5,0,1,1,.6-10c3.12.18,6.29.28,9.43.28a154.51,154.51,0,0,0,130.55-71.4,5,5,0,1,1,8.41,5.4A164.45,164.45,0,0,1,324.5,353.5Z"/><path fill="#00928F" d="M479.78,232.26a5,5,0,0,1-4.86-6.21,156.2,156.2,0,0,0-1.09-79.25,5,5,0,1,1,9.63-2.68,166.21,166.21,0,0,1,1.17,84.34A5,5,0,0,1,479.78,232.26Z"/><path fill="#00928F" d="M456.52,103.08a5,5,0,0,1-4.13-2.18A155.25,155.25,0,0,0,387,46.61a5,5,0,1,1,4-9.15,165.34,165.34,0,0,1,69.62,57.79,5,5,0,0,1-4.12,7.83Z"/><path fill="#00928F" d="M197.29,96.44a5,5,0,0,1-4-8A163.89,163.89,0,0,1,324.5,23.5c4.29,0,8.63.17,12.89.5a5,5,0,1,1-.78,10c-4-.31-8.07-.47-12.11-.47a154,154,0,0,0-123.24,61A5,5,0,0,1,197.29,96.44Z"/><path fill="#00928F" d="M165.89,214.76a5,5,0,0,1-4.95-4.34,168.47,168.47,0,0,1-1.44-21.92A164.41,164.41,0,0,1,170.93,128a5,5,0,0,1,9.31,3.67,154.16,154.16,0,0,0-10.74,56.8,157,157,0,0,0,1.36,20.6,5,5,0,0,1-5,5.66Z"/><path fill="#00928F" d="M259.5,446.65a60.9,60.9,0,0,1-9.25-.71,5,5,0,1,1,1.5-9.88c44.84,6.79,64.2-47.64,64.39-48.19a5,5,0,1,1,9.45,3.26,108.92,108.92,0,0,1-17.22,30.1C294.69,438,277.94,446.65,259.5,446.65Z"/><path fill="#00928F" d="M74.5,285.76A5,5,0,0,1,70,282.88a56.25,56.25,0,0,1,.14-49.5,67.87,67.87,0,0,1,14-19.6,5,5,0,1,1,6.7,7.43c-1.16,1.06-27,25.11-11.82,57.42a5,5,0,0,1-4.53,7.13Z"/><path fill="#00928F" d="M436,369a31,31,0,1,1,31-31A31,31,0,0,1,436,369Zm0-52a21,21,0,1,0,21,21A21,21,0,0,0,436,317Z"/><path fill="#00928F" d="M436,343a5,5,0,0,1-5-5v-1a5,5,0,0,1,10,0v1A5,5,0,0,1,436,343Z"/><path fill="#00928F" d="M364,402a31,31,0,1,1,31-31A31,31,0,0,1,364,402Zm0-52a21,21,0,1,0,21,21A21,21,0,0,0,364,350Z"/><path fill="#00928F" d="M364,376a5,5,0,0,1-5-5v-1a5,5,0,0,1,10,0v1A5,5,0,0,1,364,376Z"/><path fill="#00928F" d="M474,284a31,31,0,1,1,31-31A31,31,0,0,1,474,284Zm0-52a21,21,0,1,0,21,21A21,21,0,0,0,474,232Z"/><path fill="#00928F" d="M474,258a5,5,0,0,1-5-5v-1a5,5,0,0,1,10,0v1A5,5,0,0,1,474,258Z"/><path fill="#00928F" d="M470,152a31,31,0,1,1,31-31A31,31,0,0,1,470,152Zm0-52a21,21,0,1,0,21,21A21,21,0,0,0,470,100Z"/><path fill="#00928F" d="M470,126a5,5,0,0,1-5-5v-1a5,5,0,0,1,10,0v1A5,5,0,0,1,470,126Z"/><path fill="#00928F" d="M442,75a31,31,0,1,1,31-31A31,31,0,0,1,442,75Zm0-52a21,21,0,1,0,21,21A21,21,0,0,0,442,23Z"/><path fill="#00928F" d="M442,49a5,5,0,0,1-5-5V43a5,5,0,0,1,10,0v1A5,5,0,0,1,442,49Z"/><path fill="#00928F" d="M363,68a31,31,0,1,1,31-31A31,31,0,0,1,363,68Zm0-52a21,21,0,1,0,21,21A21,21,0,0,0,363,16Z"/><path fill="#00928F" d="M363,42a5,5,0,0,1-5-5V36a5,5,0,0,1,10,0v1A5,5,0,0,1,363,42Z"/><path fill="#00928F" d="M294,126a31,31,0,1,1,31-31A31,31,0,0,1,294,126Zm0-52a21,21,0,1,0,21,21A21,21,0,0,0,294,74Z"/><path fill="#00928F" d="M294,100a5,5,0,0,1-5-5V94a5,5,0,0,1,10,0v1A5,5,0,0,1,294,100Z"/><path fill="#00928F" d="M416,220a31,31,0,1,1,31-31A31,31,0,0,1,416,220Zm0-52a21,21,0,1,0,21,21A21,21,0,0,0,416,168Z"/><path fill="#00928F" d="M416,194a5,5,0,0,1-5-5v-1a5,5,0,0,1,10,0v1A5,5,0,0,1,416,194Z"/><path fill="#00928F" d="M389,319a31,31,0,1,1,31-31A31,31,0,0,1,389,319Zm0-52a21,21,0,1,0,21,21A21,21,0,0,0,389,267Z"/><path fill="#00928F" d="M389,293a5,5,0,0,1-5-5v-1a5,5,0,0,1,10,0v1A5,5,0,0,1,389,293Z"/><path fill="#00928F" d="M213,69a31,31,0,1,1,31-31A31,31,0,0,1,213,69Zm0-52a21,21,0,1,0,21,21A21,21,0,0,0,213,17Z"/><path fill="#00928F" d="M213,43a5,5,0,0,1-5-5V37a5,5,0,0,1,10,0v1A5,5,0,0,1,213,43Z"/><path fill="#00928F" d="M174,134a31,31,0,1,1,31-31A31,31,0,0,1,174,134Zm0-52a21,21,0,1,0,21,21A21,21,0,0,0,174,82Z"/><path fill="#00928F" d="M174,108a5,5,0,0,1-5-5v-1a5,5,0,0,1,10,0v1A5,5,0,0,1,174,108Z"/><path fill="#00928F" d="M139,202a31,31,0,1,1,31-31A31,31,0,0,1,139,202Zm0-52a21,21,0,1,0,21,21A21,21,0,0,0,139,150Z"/><path fill="#00928F" d="M139,176a5,5,0,0,1-5-5v-1a5,5,0,0,1,10,0v1A5,5,0,0,1,139,176Z"/><path fill="#00928F" d="M62.12,461a5,5,0,0,1-.67-9.95l.64-.12a5,5,0,1,1,2,9.8c-.88.18-1.37.24-1.37.24A5.49,5.49,0,0,1,62.12,461Zm18.53-9.28A5,5,0,0,1,77.3,443c.22-.19.43-.39.64-.59a5,5,0,1,1,6.89,7.24l-.83.77A5,5,0,0,1,80.65,451.72Zm11.44-17.35a5.19,5.19,0,0,1-1.72-.3,5,5,0,0,1-3-6.42c.11-.28.21-.56.31-.85a5,5,0,1,1,9.45,3.26c-.12.35-.24.69-.37,1A5,5,0,0,1,92.09,434.37ZM101,415.48a5,5,0,0,1-4-8c.24-.31.47-.61.71-.9a5,5,0,1,1,7.79,6.27c-.18.22-.36.44-.53.67A5,5,0,0,1,101,415.48Zm17.4-10.86a5,5,0,0,1-1.18-9.86l1-.24a5,5,0,1,1,2.23,9.74l-.9.22A5.44,5.44,0,0,1,118.37,404.62Zm19.58-7a5,5,0,0,1-2.84-9.12l.73-.52a5,5,0,0,1,5.84,8.12l-.9.64A5,5,0,0,1,138,397.6Zm14.62-14.92a5,5,0,0,1-4.17-7.76c.17-.25.33-.51.49-.76a5,5,0,1,1,8.45,5.35q-.28.47-.6.93A5,5,0,0,1,152.57,382.68Z"/></g></svg>