<?xml version="1.0" encoding="iso-8859-1"?>
<!-- Generator: Adobe Illustrator 18.0.0, SVG Export Plug-In . SVG Version: 6.00 Build 0)  -->
<!DOCTYPE svg PUBLIC "-//W3C//DTD SVG 1.1//EN" "http://www.w3.org/Graphics/SVG/1.1/DTD/svg11.dtd">
<svg version="1.1" id="Capa_1" xmlns="http://www.w3.org/2000/svg" xmlns:xlink="http://www.w3.org/1999/xlink" x="0px" y="0px"
	 viewBox="0 0 60 60" style="enable-background:new 0 0 60 60;" xml:space="preserve" fill="#00928F">
<g>
	<path d="M60,30C60,14.129,47.609,1.104,31.994,0.074l-0.009-0.009l-0.376-0.021c-0.002,0-0.004,0-0.006,0
		C31.072,0.016,30.538,0,30,0c-0.763,0-1.518,0.038-2.267,0.094c-0.11,0.008-0.221,0.016-0.331,0.025
		c-3.482,0.3-6.795,1.198-9.838,2.59l-0.021-0.013l-0.482,0.23c-0.097,0.047-0.187,0.105-0.284,0.152
		c-0.583,0.288-1.154,0.597-1.716,0.921c-0.224,0.129-0.45,0.255-0.67,0.39c-0.557,0.341-1.099,0.705-1.631,1.08
		c-0.214,0.151-0.431,0.299-0.641,0.456c-0.547,0.407-1.075,0.837-1.592,1.28c-0.18,0.155-0.362,0.307-0.538,0.466
		C9.455,8.152,8.942,8.651,8.445,9.166C8.365,9.248,8.278,9.32,8.199,9.403L7.597,10.04l0.016,0.019
		c-1.301,1.459-2.46,3.045-3.459,4.737c-0.023,0.038-0.044,0.077-0.066,0.115c-0.771,1.319-1.443,2.701-2.008,4.138
		c-0.034,0.088-0.07,0.174-0.104,0.262c-0.27,0.705-0.514,1.422-0.731,2.152c-0.007,0.024-0.017,0.046-0.024,0.07l-0.18,0.611
		l0.008,0.007C0.369,24.655,0,27.284,0,30c0,8.337,3.421,15.888,8.93,21.33l-0.003,0.016l0.4,0.382
		c0.139,0.132,0.284,0.257,0.425,0.386c0.061,0.056,0.122,0.111,0.183,0.166c0.3,0.271,0.605,0.535,0.915,0.793
		c0.054,0.045,0.108,0.089,0.163,0.134c0.324,0.266,0.652,0.524,0.985,0.775c0.044,0.033,0.087,0.065,0.131,0.098
		c0.348,0.259,0.701,0.511,1.059,0.754c0.034,0.023,0.067,0.045,0.101,0.068c0.368,0.248,0.742,0.488,1.12,0.719
		c0.031,0.019,0.062,0.038,0.092,0.056c0.381,0.231,0.766,0.453,1.156,0.666c0.035,0.019,0.069,0.038,0.104,0.057
		c0.385,0.209,0.775,0.408,1.168,0.599c0.046,0.022,0.092,0.045,0.138,0.067c0.382,0.183,0.767,0.357,1.156,0.523
		c0.064,0.028,0.128,0.055,0.193,0.083c0.37,0.155,0.743,0.302,1.119,0.442c0.089,0.033,0.177,0.067,0.266,0.099
		c0.353,0.128,0.71,0.248,1.068,0.362c0.114,0.037,0.228,0.074,0.343,0.11c0.336,0.103,0.674,0.197,1.013,0.288
		c0.139,0.037,0.278,0.076,0.418,0.112c0.32,0.081,0.641,0.153,0.964,0.223c0.161,0.035,0.322,0.073,0.484,0.105
		c0.307,0.061,0.616,0.114,0.926,0.166c0.178,0.03,0.355,0.063,0.535,0.09c0.305,0.045,0.612,0.081,0.918,0.117
		c0.185,0.022,0.368,0.048,0.554,0.066c0.102,0.01,0.204,0.018,0.305,0.027v0.014l0.928,0.054c0.083,0.005,0.165,0.012,0.248,0.017
		C29.002,59.987,29.5,60,30,60c0.497,0,0.992-0.013,1.485-0.038c0.159-0.008,0.315-0.023,0.473-0.033
		c0.136-0.009,0.272-0.018,0.408-0.029c0.196-0.015,0.392-0.028,0.588-0.047c0.202-0.02,0.401-0.047,0.602-0.071
		c0.286-0.034,0.572-0.067,0.857-0.109c0.202-0.03,0.403-0.066,0.604-0.1c0.281-0.047,0.562-0.095,0.842-0.151
		c0.17-0.034,0.338-0.071,0.507-0.108c0.063-0.014,0.126-0.028,0.189-0.042c0.247-0.055,0.493-0.111,0.738-0.173
		c0.177-0.044,0.352-0.092,0.527-0.14c0.247-0.067,0.495-0.133,0.74-0.206c0.001,0,0.003-0.001,0.004-0.001l0.003-0.001
		c0.05-0.015,0.1-0.032,0.15-0.047c0.153-0.046,0.304-0.095,0.456-0.144c0.32-0.103,0.638-0.21,0.953-0.323
		c0.125-0.045,0.25-0.091,0.374-0.138c0.341-0.128,0.68-0.261,1.016-0.401c0.096-0.04,0.192-0.08,0.287-0.121
		c0.362-0.155,0.72-0.318,1.076-0.487c0.068-0.033,0.137-0.065,0.205-0.098c0.379-0.184,0.754-0.377,1.125-0.577
		c0.044-0.023,0.087-0.047,0.131-0.07c0.391-0.214,0.778-0.436,1.16-0.668c0.023-0.014,0.047-0.028,0.07-0.042
		c0.396-0.241,0.787-0.492,1.172-0.752c0.01-0.006,0.019-0.013,0.029-0.019c0.392-0.265,0.778-0.54,1.158-0.824
		c0.004-0.003,0.008-0.006,0.012-0.009c0.382-0.286,0.758-0.582,1.128-0.887c0.001-0.001,0.002-0.001,0.003-0.002
		c0.483-0.398,0.958-0.807,1.419-1.238l0.336-0.315l-0.001-0.024C56.476,46.104,60,38.458,60,30z M48.836,29.536l-0.842,3.362
		l0.794,17.844c-1.979,1.794-4.215,3.31-6.646,4.485c-0.018,0.009-0.037,0.017-0.055,0.026c-0.374,0.18-0.753,0.351-1.136,0.515
		c-0.068,0.029-0.136,0.056-0.204,0.084c-0.333,0.139-0.67,0.272-1.009,0.399c-0.108,0.04-0.216,0.078-0.324,0.116
		c-0.015,0.005-0.031,0.01-0.046,0.016c0.316-2.596,1.533-5.021,3.52-6.937c1.645-1.584,2.511-3.819,2.377-6.134
		c-0.214-3.724-3.101-6.845-6.714-7.262c-1.44-0.164-2.876,0.083-4.163,0.72c-0.692,0.345-1.522,0.346-2.219,0.001
		c-1.286-0.639-2.724-0.89-4.161-0.721c-3.614,0.416-6.501,3.538-6.715,7.262c-0.134,2.314,0.732,4.55,2.376,6.133
		c2.36,2.274,3.66,5.216,3.66,8.281v0.143c-0.025-0.002-0.051-0.003-0.076-0.006c-0.173-0.017-0.346-0.04-0.518-0.06
		c-0.281-0.033-0.562-0.066-0.84-0.107c-0.172-0.025-0.343-0.056-0.514-0.084c-0.28-0.047-0.56-0.095-0.837-0.15
		c-0.16-0.032-0.319-0.067-0.478-0.101c-0.29-0.063-0.579-0.129-0.865-0.2c-0.141-0.035-0.282-0.073-0.423-0.11
		c-0.306-0.082-0.61-0.168-0.911-0.259c-0.119-0.036-0.237-0.073-0.355-0.11c-0.326-0.104-0.65-0.214-0.971-0.329
		c-0.091-0.033-0.181-0.065-0.272-0.099c-0.351-0.131-0.699-0.268-1.044-0.412c-0.059-0.025-0.118-0.049-0.177-0.074
		c-0.377-0.161-0.75-0.329-1.118-0.506c-0.028-0.013-0.056-0.026-0.084-0.04c-2.467-1.194-4.733-2.74-6.734-4.572
		c1.786-8.287,5.739-16.117,5.78-16.197l0.352-0.69L3.326,21.492c0.007-0.022,0.015-0.044,0.022-0.066
		c0.209-0.651,0.444-1.29,0.699-1.918c0.026-0.065,0.051-0.131,0.077-0.196c0.26-0.628,0.545-1.243,0.849-1.846
		c0.042-0.083,0.085-0.165,0.127-0.248c1.032-1.998,2.296-3.846,3.752-5.517c1.231,1.912,1.882,4.203,1.837,6.577
		c-0.042,2.282,0.926,4.476,2.656,6.016c1.474,1.314,3.356,1.979,5.227,1.979c1.663-0.001,3.315-0.527,4.656-1.592
		c1.135-0.899,1.977-2.094,2.434-3.452c0.248-0.734,0.835-1.321,1.569-1.569c1.36-0.458,2.554-1.299,3.452-2.433
		c2.262-2.85,2.095-7.099-0.387-9.884c-1.509-1.694-3.643-2.657-5.874-2.657c-0.047,0-0.095,0-0.143,0.001
		c-1.427,0.026-2.908-0.25-4.315-0.782c2.424-0.941,4.987-1.565,7.639-1.796c0.108-0.009,0.216-0.017,0.324-0.025
		C28.613,2.033,29.304,2,30,2c0.38,0,0.757,0.014,1.133,0.029l13.694,13.367C48.566,19.046,50.103,24.464,48.836,29.536z
		 M37.241,57.045c-0.006,0.002-0.012,0.003-0.018,0.005c-0.605,0.161-1.216,0.303-1.831,0.424c-0.067,0.013-0.136,0.024-0.203,0.036
		c-0.537,0.101-1.077,0.184-1.618,0.254c-0.095,0.012-0.191,0.025-0.286,0.036c-0.048,0.006-0.096,0.011-0.144,0.017
		c-0.565,0.064-1.131,0.113-1.697,0.143c-0.023,0.001-0.047,0.004-0.07,0.005c-0.091,0.004-0.183,0.003-0.274,0.007
		c-0.515,0.02-1.029,0.026-1.542,0.017c-0.076-0.001-0.152-0.004-0.228-0.006v-0.256c0-3.614-1.518-7.066-4.272-9.722
		c-1.223-1.178-1.867-2.846-1.768-4.577c0.159-2.767,2.286-5.084,4.948-5.391c1.053-0.121,2.104,0.061,3.044,0.526
		c1.251,0.62,2.744,0.619,3.995,0c0.939-0.466,1.992-0.648,3.044-0.526h0.001c2.661,0.307,4.788,2.624,4.947,5.391
		c0.1,1.731-0.545,3.399-1.769,4.578c-2.534,2.442-4.008,5.602-4.2,9.023C37.28,57.034,37.261,57.04,37.241,57.045z M17.509,4.987
		c2.125,1.142,4.54,1.744,6.807,1.702c1.685-0.072,3.333,0.692,4.485,1.986h0.001c1.844,2.069,1.979,5.212,0.313,7.311
		c-0.658,0.831-1.53,1.446-2.523,1.781c-1.323,0.446-2.379,1.502-2.825,2.825c-0.334,0.992-0.95,1.864-1.782,2.524
		c-2.098,1.664-5.241,1.53-7.31-0.314c-1.294-1.152-2.018-2.787-1.986-4.485c0.055-2.947-0.805-5.796-2.432-8.121
		C12.38,8.088,14.833,6.331,17.509,4.987z M2,30c0-2.188,0.26-4.315,0.737-6.36l12.028,10.605
		c-0.968,2.011-3.714,8.044-5.322,14.741C4.828,43.992,2,37.321,2,30z M50.006,33.102l0.77-3.081
		c1.439-5.759-0.305-11.911-4.552-16.057L34.307,2.332C47.709,4.41,58,16.025,58,30c0,7.244-2.765,13.854-7.295,18.83L50.006,33.102
		z"/>
	<path d="M33.278,19c-4.411,0-8,3.589-8,8s3.589,8,8,8s8-3.589,8-8S37.689,19,33.278,19z M33.278,33c-3.309,0-6-2.691-6-6
		s2.691-6,6-6s6,2.691,6,6S36.587,33,33.278,33z"/>
</g>
<g>
</g>
<g>
</g>
<g>
</g>
<g>
</g>
<g>
</g>
<g>
</g>
<g>
</g>
<g>
</g>
<g>
</g>
<g>
</g>
<g>
</g>
<g>
</g>
<g>
</g>
<g>
</g>
<g>
</g>
</svg>
