<svg width="1440" height="528" viewBox="0 0 1440 528" fill="none" xmlns="http://www.w3.org/2000/svg">
<g filter="url(#filter0_d)">
<path d="M399 0L439 8.77223C479 18.2065 559 34.7579 639 123.639C719 211.858 799 370.751 879 450.197C959 529.644 1039 529.644 1119 503.162C1199 476.679 1279 423.715 1359 379.523C1439 335.993 1519 299.58 1599 317.786C1679 335.993 1759 405.509 1799 441.425L1839 476.679V0H1799C1759 0 1679 0 1599 0C1519 0 1439 0 1359 0C1279 0 1199 0 1119 0C1039 0 959 0 879 0C799 0 719 0 639 0C559 0 479 0 439 0H399Z" fill="#00928F" fill-opacity="0.7"/>
</g>
<g filter="url(#filter1_df)">
<path d="M-49 0L-8.00674 34.0882C32.9865 68.1763 114.734 136.353 197.199 136.353C278.827 136.353 360.933 68.1763 442.202 39.734C524.667 11.7178 607.131 22.3704 688.401 73.8222C770.507 124.635 852.135 216.247 934.599 261.307C1016.35 306.794 1098.33 306.794 1180.8 284.104C1262.19 260.988 1344.53 216.247 1425.8 164.795C1508.15 113.982 1589.54 56.4585 1631.37 28.4423L1672 0H1631.01C1590.01 0 1508.27 0 1425.8 0C1344.17 0 1262.07 0 1180.8 0C1098.33 0 1015.87 0 934.599 0C852.493 0 770.865 0 688.401 0C606.653 0 524.667 0 442.202 0C360.813 0 278.468 0 197.199 0C114.854 0 33.4646 0 -8.36528 0H-49Z" fill="#00928F" fill-opacity="0.7"/>
</g>
<g filter="url(#filter2_f)">
<path d="M-392 -141L-356.556 -134.053C-321.111 -126.582 -250.222 -113.475 -179.333 -43.0896C-108.444 26.7716 -37.5555 152.6 33.3333 215.515C104.222 278.429 175.111 278.429 246 257.457C316.889 236.486 387.778 194.543 458.667 159.547C529.556 125.075 600.444 96.2395 671.333 110.657C742.222 125.075 813.111 180.125 848.556 208.568L884 236.486V-141H848.556C813.111 -141 742.222 -141 671.333 -141C600.444 -141 529.556 -141 458.667 -141C387.778 -141 316.889 -141 246 -141C175.111 -141 104.222 -141 33.3333 -141C-37.5555 -141 -108.444 -141 -179.333 -141C-250.222 -141 -321.111 -141 -356.556 -141H-392Z" fill="#00928F" fill-opacity="0.7"/>
</g>
<defs>
<filter id="filter0_d" x="395" y="0" width="1448" height="528" filterUnits="userSpaceOnUse" color-interpolation-filters="sRGB">
<feFlood flood-opacity="0" result="BackgroundImageFix"/>
<feColorMatrix in="SourceAlpha" type="matrix" values="0 0 0 0 0 0 0 0 0 0 0 0 0 0 0 0 0 0 127 0"/>
<feOffset dy="5"/>
<feGaussianBlur stdDeviation="2"/>
<feColorMatrix type="matrix" values="0 0 0 0 0 0 0 0 0 0 0 0 0 0 0 0 0 0 0.25 0"/>
<feBlend mode="normal" in2="BackgroundImageFix" result="effect1_dropShadow"/>
<feBlend mode="normal" in="SourceGraphic" in2="effect1_dropShadow" result="shape"/>
</filter>
<filter id="filter1_df" x="-64" y="-15" width="1751" height="329" filterUnits="userSpaceOnUse" color-interpolation-filters="sRGB">
<feFlood flood-opacity="0" result="BackgroundImageFix"/>
<feColorMatrix in="SourceAlpha" type="matrix" values="0 0 0 0 0 0 0 0 0 0 0 0 0 0 0 0 0 0 127 0"/>
<feOffset dy="5"/>
<feGaussianBlur stdDeviation="2"/>
<feColorMatrix type="matrix" values="0 0 0 0 0 0 0 0 0 0.572549 0 0 0 0 0.560784 0 0 0 0.7 0"/>
<feBlend mode="normal" in2="BackgroundImageFix" result="effect1_dropShadow"/>
<feBlend mode="normal" in="SourceGraphic" in2="effect1_dropShadow" result="shape"/>
<feGaussianBlur stdDeviation="7.5" result="effect2_foregroundBlur"/>
</filter>
<filter id="filter2_f" x="-402" y="-151" width="1296" height="431" filterUnits="userSpaceOnUse" color-interpolation-filters="sRGB">
<feFlood flood-opacity="0" result="BackgroundImageFix"/>
<feBlend mode="normal" in="SourceGraphic" in2="BackgroundImageFix" result="shape"/>
<feGaussianBlur stdDeviation="5" result="effect1_foregroundBlur"/>
</filter>
</defs>
</svg>
