<svg xmlns="http://www.w3.org/2000/svg" xmlns:xlink="http://www.w3.org/1999/xlink" version="1.1" x="0px" y="0px" viewBox="0 0 100 125" style="enable-background:new 0 0 100 100;" xml:space="preserve"><path fill="#00928F" d="M53.113,31.33c0.128,43.823,8.644,57.639,9.009,58.209c0.19,0.298,0.513,0.46,0.842,0.46c0.018,0,0.035-0.007,0.053-0.007  c0.02,0.001,0.04,0.008,0.06,0.008c0.33,0,0.652-0.163,0.843-0.461c0.365-0.57,8.881-14.384,9.009-58.207  c5.797-0.098,10.483-4.845,10.483-10.665C83.411,14.785,78.626,10,72.744,10c-4.286,0-7.98,2.546-9.674,6.201  C61.376,12.546,57.682,10,53.396,10c-5.882,0-10.667,4.785-10.667,10.667C42.729,26.454,47.361,31.18,53.113,31.33z M61.964,84.329  c-1.649-4.424-4.025-12.715-5.503-26.397c1.233,0.524,3.651,1.577,5.503,2.389V84.329z M72.744,12c4.779,0,8.667,3.888,8.667,8.667  s-3.888,8.667-8.667,8.667H71.93c-0.552,0-1,0.447-1,1c0,6.997-0.221,13.231-0.589,18.778h-6.263V20.667  C64.077,15.888,67.965,12,72.744,12z M53.396,12c4.779,0,8.667,3.888,8.667,8.667c0,0.025,0.012,0.046,0.014,0.07V50  c0,0.02,0.01,0.036,0.011,0.056c-0.001,0.02-0.011,0.036-0.011,0.056c0,0.553,0.448,1,1,1h7.12  c-1.364,18.152-4.33,28.516-6.233,33.523V59.667c0-0.396-0.235-0.756-0.598-0.916c-1.084-0.476-6.521-2.859-7.038-3.032  c-0.03-0.01-0.06-0.004-0.09-0.011c-0.683-7.062-1.126-15.45-1.126-25.373c0-0.553-0.448-1-1-1h-0.715  c-4.779,0-8.667-3.888-8.667-8.667S48.617,12,53.396,12z"/><path fill="#00928F" d="M53.396,25.841c2.853,0,5.174-2.321,5.174-5.174s-2.321-5.174-5.174-5.174s-5.174,2.321-5.174,5.174  S50.543,25.841,53.396,25.841z M53.396,17.493c1.75,0,3.174,1.424,3.174,3.174s-1.424,3.174-3.174,3.174  c-1.75,0-3.174-1.424-3.174-3.174S51.646,17.493,53.396,17.493z"/><path fill="#00928F" d="M72.744,25.841c2.853,0,5.174-2.321,5.174-5.174s-2.321-5.174-5.174-5.174s-5.174,2.321-5.174,5.174  S69.891,25.841,72.744,25.841z M72.744,17.493c1.75,0,3.174,1.424,3.174,3.174s-1.424,3.174-3.174,3.174  c-1.75,0-3.174-1.424-3.174-3.174S70.994,17.493,72.744,17.493z"/><path fill="#00928F" d="M43.082,77.918c0.552,0,1-0.447,1-1s-0.448-1-1-1h-2.321V32.046c0-2.833-2.305-5.139-5.139-5.139h-0.442v-2.72  c0-1.984-1.48-3.643-3.454-4.072V11c0-0.553-0.448-1-1-1s-1,0.447-1,1v9.116c-1.974,0.429-3.454,2.088-3.454,4.072v2.72h-0.825  c-2.833,0-5.139,2.306-5.139,5.139v43.872H18.19c-0.552,0-1,0.447-1,1s0.448,1,1,1h5.974V88h-2.012c-0.552,0-1,0.447-1,1  s0.448,1,1,1h16.659c0.552,0,1-0.447,1-1s-0.448-1-1-1h-1.85V77.918H43.082z M28.273,24.188c0-1.206,1.101-2.188,2.454-2.188  s2.454,0.981,2.454,2.188v2.72h-4.908V24.188z M25.448,28.907h10.175c1.73,0,3.139,1.408,3.139,3.139v12.163H22.309V38.25h5.949  c0.552,0,1-0.447,1-1s-0.448-1-1-1h-5.949v-4.204C22.309,30.315,23.717,28.907,25.448,28.907z M22.309,70.089h5.949  c0.552,0,1-0.447,1-1s-0.448-1-1-1h-5.949v-5.96h5.949c0.552,0,1-0.447,1-1s-0.448-1-1-1h-5.949v-5.96h5.949c0.552,0,1-0.447,1-1  s-0.448-1-1-1h-5.949v-5.96h16.452v29.709H22.309V70.089z M34.961,88h-8.797V77.918h8.797V88z"/></svg>